/* XPM */
static char *east_48[] = {
/* columns rows colors chars-per-pixel */
"48 48 17 1 ",
"  c #EEEEEE",
". c #EFEFEF",
"X c #F0F0F0",
"o c #F1F1F1",
"O c #F2F2F2",
"+ c #F3F3F3",
"@ c #F4F4F4",
"# c #F5F5F5",
"$ c #F6F6F6",
"% c #F7F7F7",
"& c #F8F8F8",
"* c #F9F9F9",
"= c #FAFAFA",
"- c #FBFBFB",
"; c #FCFCFC",
": c #FDFDFD",
"> c white",
/* pixels */
";>%>%>&>>&>%>%>:*>%>$>&>>%>&>&>:*>%>%>%>>&>&>%>=",
":>%>%>%>>%>&>%>:=>%>%>%>>%>%>$>:*>%>&>%>>%>&>%>=",
"#&o&o%X&%.&.&o%$o&X&.&X%&X&X&.&#o&.&X%X%%X& &o%+",
";>%>%>%>>&>%>%>:*>%>%>%>>%>&>&>:=>%>&>&>>&>&>%>*",
"#&X%X%X&&X&.&X%#O%X&.%o%&X%X%.&#O&X%.&.%&X%o%X%O",
";>%>%>%>>%>&>%>:=>%>%>%>>&>%>%>:*>%>&>%>>%>%>&>=",
"#%X&X& %&X&X%X%#o%X%X&.%*.%X&X%#O%X&.& &%X%X%X$+",
";>%>%>&>>&>%>$>:*>&>%>%>>&>&>&>:*>%>&>&>>&>%>&>=",
";>&>%>%>>$>%>%>:=>%>%>%>>%>%>%>:*>%>%>$>>&>%>%>*",
"#%X&X%X%&X%.%o%#O%.%X$o%$X%X%.%$O%.&X%o$&X%o&.%O",
";>%>%>%>>&>%>&>:*>%>%>%>>%>$>&>:*>&>&>%>>%>%>&>=",
"#%O%.$o&%X&X&X%$+&.&.&.&&.%o&.&#O%X%.%X&&.%X%o&O",
";>&>&>%>>%>$>&>:=>&>&>%>>%>%>%>:=>%>&>%>>&>&>%>=",
"#%o%o%X%&X&.%X&#O$o%X%o%&X&.&X%$o%X%.%X%%o$o%.%O",
":>%>&>%>>%>&>&>:=>%>%>%>>$>%>%>:*>%>%>&>>%>$>&>=",
"-:#:#:$::#:#:#:-%:@:#:#::#:$:#:-%:#:$;#::$:$:#:&",
"&*O*O=O*=+*O*O=&@*+=O=O==O=O=o=&+=O*O*O*=O=O=o=@",
":>%>%>&>>%>$>%>:=>%>%>%>>%>%>%>:=>%>&>%>>&>&>&>=",
"#%O%o%o&%X&X%o%$o&X%X&.&%.%o%o%$O%o&X%o&%X% &X$+",
";>%>%>%>>&>%>%>:*>%>$>%>>&>&>%>:=>%>&>%>>%>%>&>*",
"$%o%.&X&%.& %o%#O&X%.&X%&X%X%X&$O%X&.&X%%o%o&X%+",
";>%>&>%>>&>&>%>:=>%>%>&>>%>&>$>:*>%>&>%>>&>%>%>=",
"#%X&X&o&%X% %X%$o&X%.%X$&o% %o%#o&X%.%X%&X$X%X%O",
":>%>%>%>>%>&>%>:*>%>&>%>>%>&>%>:*>&>%>%>>&>%>&>=",
";>&>%>&>>%>%>%>:=>%>%>&>>&>%>&>:&>%>&>%>>%>$>%>*",
"@&.%o%o$%X%X&X%#O&.%X%X%%X%.%.&$o%.&.&o%%o%X%X&O",
":>%>&>%>>&>%>&>:*>&>%>&>>%>&>&>:=>%>%>&>>&>%>%>=",
"#%X%X& %&.%X%X%#O%X$X%X%&.&o%X%$X&o%X&X&%.$X&X%O",
";>%>%>%>>&>%>%>:*>&>%>%>>%>%>%>:*>%>&>%>>&>&>%>=",
"#&X%.&X%%.&.%X%$O$X&o%X%%X&X%.&#o%X&X%X%%.%o$X%O",
";>&>%>%>>&>&>&>:*>&>%>&>>%>%>&>:*>&>&>%>>&>%>&>=",
"-:$:$:#::#:$:@:-&:#:$:#::$:$:#:-%:#:#:#::$:$:$:&",
"%=o*+*o**O*O&O*%@*o*O=O**O&o*o*%+=o*O*O=*o*o*+*@",
";>%>&>%>>&>%>%>:=>&>$>%>>%>%>&>:*>&>%>%>>%>&>%>=",
"#%o%.%o%&X%X%X%#O%X%.%X%%X&o%.%$o%X%X%X$&X&.&.&+",
";>%>%>&>>&>%>%>:*>%>%>&>>&>%>%>:=>%>%>&>>&>%>%>=",
"#%o%X%X%&.%X$X%$O%X%X%.%&o%X%X&#o&.&X%X%& &.%o%O",
":>%>&>%>>%>&>&>:*>%>%>%>>%>%>%>:*>&>&>%>>&>%>%>=",
"#%O%X&X&%X&.&X%$+%.&X%o%&X%.%o%$O%X&.%X%&o%X&X%+",
";>%>%>%>>%>&>%>:*>&>&>%>>%>&>%>:=>&>&>$>>%>&>%>*",
":>&>&>%>>%>&>%>:*>&>%>%>>%>$>%>:*>%>%>&>>&>%>&>-",
"#%X%.&X&$X%.%X&$+%.% %o%%o%O% &$o&X%X%X&%.%X%X%o",
":>&>%>%>>&>%>%>:=>&>%>%>>%>$>&>:*>%>&>$>>%>%>%>-",
"#&X&o%X&%X&X&X%#O&X&X%X%%X%X%.&#O&X&.%o&%X&.&X&O",
";>%>&>&>>$>%>%>:*>$>%>&>>%>%>$>:=>%>&>%>>&>%>&>=",
"#%o%X%.%%X%X$X%$O%o&.&.%%X%X&X%$o& %.%.&& %o*.&O",
";>&>%>%>>%>%>%>:*>&>&>%>>&>%>%>:=>%>%>&>>&>%>&>=",
";>%>&>%>>%>%>%>:=>$>$>%>>%>%>&>:*>&>&>$>>%>%>%>*"
};
