/* XPM */
static char *north_48[] = {
/* columns rows colors chars-per-pixel */
"48 48 9 1 ",
"  c #010101",
". c #020202",
"X c #030303",
"o c #040404",
"O c #050505",
"+ c #060606",
"@ c #070707",
"# c #080808",
"$ c #090909",
/* pixels */
"oOXX.XXooX.. .oOooXOoOX  ..ooOoX.OX.o.oXX...oXoX",
"OOX. X.XXX.. .XO+oXXXoO .X.OXXXoXOOoXXXoX. .XXOo",
"X.oXX+X@XXXO.XoXOooXXoo .XOoXoXooXOO.ooO.X  XO+@",
".o.oXO... XXO.ooX.XXX X XX.oOo.oX+oo..OX.X.XoooO",
"X. +ooOXo. .X..+ XXoXoXXoX.XO. X.XoO@ooXXXoOXXXX",
"+XXXXoo .X OoXoXXoo.o.X+O. .XX.Xo.oOo+.O.O+Oo$oX",
"o.XX.XX..XXOoX oXXXX.XX++oX.o..OX.O@OX o XXoOO .",
"OXXOooo.XXoXX..OoooXXXXooXXX. .oo.ooX. ..XoOXo.o",
"OXXXXXoX.XOoOo.o+XXO+oOo.X+XX+.oOXoOOXo XX...oXo",
"  XXX..Xo.+. XoXo. .XoXo+Oo.oO .@oXoXOXOXX.Xoo.X",
" XXoo+oX....oOoXoooXXX@O+X.XOoX.XX .oXXooO. XX..",
"XXoOOo+ooX...X#OXo.X.o+X.oXXXooXXO.oXoXoOO.XoO.X",
"o..XOOOooO..XXOOX.X  .X.OO.XX.OX.. ooX.XXooO.Oo.",
"OooXXooOXXX.XXXX..OX.XXooo.Oo.XX.@ooO@Xo O+OXoXO",
"oOOXX.XXooXOXXooX.X.Xo..OX XOXo .XX$@Oo.. ..Xoo+",
".ooX.XO+ooOoOoXoX .oXoX.oX .o+X..oXOOOXOoXOOooOo",
"XXOOXXo$+XXXoX. .oOoX.X.XX.XOo..X.XoooXoXoXXXooo",
"oooX oXo+X..XXXXoXXXXOo.XoXOXX.XX..Xo .. XX..ooX",
"oo.+oXoXOOoOX oOoo..oXXXoOXoOX.OoXXX.X.ooXooX..X",
"XoXXO.Xo+o+XXXXXooXX.X.XOo.o...oooXX.oXoX...X.Xo",
".X.X.oXXoOoXoOo.o+Ooo+OOo..XX.X..XX XX.O.. oo+oo",
"OoX .XoXXoXX.@XXo.XXXoXoOo.X..oXO..XoOooX..X X++",
"..X..O+XXXoo+oX.OoOo.Oo.X..X.oOOX.XoOXoXXX.OoO++",
". XooO@@Xo...ooXX.X. .o.XX.OOooOXoXoXOooXoOo....",
".oXXOXOXoXX....  XXXXO..X Oo.X.oOo+oooOoXo.OoXo ",
"X@oX.oOOX+OoOX.OoOoOooXX..Xo@oOXXX.OOXo... o.O. ",
"X+o. .oXXo.X. .oo+++++XXX.o..oOX...XOoOOoO.oooX.",
"o.OX..XXXX +X.ooXooOXoo.X.o.XoXO.XX..X XO+O+oXo@",
"XXX.X .XXO.+XXoX.XoooXX X X ooo+.oo .oXX.oXoO.Oo",
"XOXoXXoOXXX.OOo OooXoXoXXO.XXXoXoO+..ooXoX.++XXo",
"...oooXoX ...XX.oX+OXoX XOOO.XoXoooOoXXX.X.Xo..O",
".ooXo+oo+OXo.Xoo.+oOoOoo.oo .+O.XX.X .X.ooO.OO.X",
"oooXXooO+ooXX.+o..ooX++ooX+oX.o+X..X.XOXOooOX.XX",
"O.XXX+oO+oooOX.ooX@Xooo....Oo.Xo+.oXoOOo. o+oXXO",
".XX. .Xoo@+X.X.ooXoooX.O...Xoooo o...X oX.XOo++o",
"XoO+X.O.OOo.+Xo+...XX+oXoOXXo+XXXOOO@oXo+oOO.+X.",
"oO+OXoo..X.XXoOX..XO.oo .OX@X.X.O#Oo.XXXXXoX.oXX",
"oo+oXo...X .oOOX XXOX+X.Xo.XX XXo#oXOXX..ooX.oXo",
"X.o.X.O..XXoooXXXXX....X.oo.XX..XoXOo..  XOoXXXX",
"X.X. oX.X ..X.OoXOOoOo..oXXo.X .o+#o..X..OO+oOOX",
".oOXX.Xo.XXXX..+OoOXOX ooXXXXo.XXX.X.X..oX.o..Xo",
"..  XXOXoXXoo..+o+o.XOXOOO..XXXXOXOOXXOooooXo.XX",
" XoX .X@oXoXo.XoO+X.OXoOXX ..OO@Ooo.XXXo.oXXXXXo",
". XXXo.oooooX.o++oOoo.oXXXXoXXoOOooOo.XoX.OoXX.X",
". XXXXXoX XOXXoXOO+OoXXOooX+XoX.oOXX+oOoXoXXXOoo",
"Xo#X oooX.XOXOOXOoXXoo.O+OOO. X.XooO+OO.XX+OX@+X",
"ooooo@oXXX.XooooX+XO.X.XO@+XO.XoOXoOXO. . Xoo+XX",
"o X.oOooo..XooXoXooX..XXXXXoXX..O@OXXO..X XOOoX."
};
