/* XPM */
static char *south_48[] = {
/* columns rows colors chars-per-pixel */
"48 48 34 1 ",
"  c #0D0D0D",
". c #0E0E0E",
"X c #0F0F0F",
"o c #101010",
"O c #111111",
"+ c #121212",
"@ c #131313",
"# c #141414",
"$ c #151515",
"% c #161616",
"& c #171717",
"* c #181818",
"= c #191919",
"- c #1A1A1A",
"; c #1B1B1B",
": c #1C1C1C",
"> c #1D1D1D",
", c #1E1E1E",
"< c #1F1F1F",
"1 c #202020",
"2 c #212121",
"3 c #222222",
"4 c #232323",
"5 c #242424",
"6 c #252525",
"7 c #262626",
"8 c #272727",
"9 c #282828",
"0 c #292929",
"q c #2A2A2A",
"w c #2B2B2B",
"e c #2C2C2C",
"r c #2D2D2D",
"t c #2E2E2E",
/* pixels */
",78;>,%<&;&$O>72-=@:>72-%@=02-;:2w5*;;=*-=&-r:1-",
"452*;<%=-=X*@=2682%=476O<><74=*--25--2*;&&o#*926",
",>=;,e55%-@2=-4436;&1,*o$>822>O-%167-6>1@*::1w5r",
"-5=<322*&,=,2#@<>;>8<*-O=->765;639>*%%11$:&;<258",
":&@8862,#*o>1<&<O&:4<;;27>-t3>#;56667367;=$--113",
"0;$30w73*;&477%,=;<;2:#5;#O<=$@<>->8823<o1423t,,",
",<>2451:X:2w<>X=:%&@<&&5<;:26&;76$>081*>O>2-73$$",
"52::-<-$%%,61$&3:;,#>&=-==5<@&@2<$75;#O=$;><,5->",
"751;*53&&3622=&24<:4>,1;2%1:*,+*:;79<:;$,63777><",
"2%76&&+&4<61+$444<-*:<3<75:&<8#=65%=&:*<3<@268&&",
"<;,3;,:,1:-=-42<-&41>4770->-251##3=::,%:65#*:58,",
"72-:721;43,*15071:*,$022><5,*>2**,%q<53>42%=63:-",
"51;>054159$&:603-%%;=>*>87-%@;76>*#70;2;:6>4#4,=",
"=731-565,*@->07=@$=,3<5151o3,42;+5;3><47o3qw3537",
">851->:-1>+2#07<#$=-=;@&:=O$,5-@%$=w77>2#$:<w3:8",
"$95:+;::9849;:**&%14-<*45&$&;83*$,-951o2<18q5-:q",
">291**107*:4,:<,--,2=<<3%$-79-#*>681:=o$;670>116",
"<15%@#;3,:,21>12<-&&O:=1&>5,;==13;*<5*$&%=>>%:74",
"5352,,,>8<774%&>6<&$$;-:3<57212831;2%$&:3<4;;@$9",
"3:;:2-,246<<3>63,34:&:%,43=;>;1:45=1=>:643=&%>6>",
"*;%;@&*;:1>==75>;641>2,,8,&=;39%:5-@<;@5-@@-45<<",
"<$%#;2>>,3&-#6* $;3*-==1>;-@O$3<q>*=<5<4<+#-#476",
"O:<;*172,9566>,:<401%1:-o*&,;478<#%26;;,*;-36074",
"O$:&-709$87=;49;*;3>41==&><6>><55:,3<,=-%>6;57<*",
"#**;172*3311*<&O==:;5>=%>:1:&1>6>,22<->*=>:3487-",
";471*232><78<*-1642<126<%#:494917<$25=>&&#&964%#",
"24;%%%:<<2,>+=>>;7<5703*>:5,=3842<*5e944;,1151&;",
"6<<==:>:7$+,*#>=12q5e>%.%40%:332>7<<*-@1815,6+%6",
"e74*=@-162-:%->1674=82,-;=2&57q2167=:;=2>;*<2=23",
"q2<*$*>7<*<$,73$375=2>;:,37-:2e<-96+&>-3864e83>3",
"6>$&:;<2;#13<<:O=<<1:-*O-7q>#-56-66>%;70>=2258:9",
"<42;$313w37<,4<%:85>7654@&6%%49,;91#+$11>,263r=>",
",,=145>654:>558:@$4$,6><+,45&@;q58>4>,<2:46q=,14",
">-:,864<21:,,@;<%*7-11,*;%#41*;,q,1&;1<6%=,9;2<1",
"@4<>+*,,484=$#=54&:;4751%&@;<<,-+<;;>6=,=#>3<q5;",
"$,32%,4-94>+4,97:*#::85@;<:584*%@9966<6,5%<26q<&",
":,3;$36-1*$%$:7&@@<<21=+#;&94:+4,<5;;=2-*%@*36<4",
"2941&$;3<6$%>,63@@=627>$*;*1*#%%191>;>;#**>=<,<3",
"2,>+&+21-#*>263=:=2:7&#-16224%$25308:=;&:<22;<>1",
"934--*=72=<5:;;2,52<4**54;==$=;47q7<@%::#49629w3",
"=48==O$;,;13>>*r72,,4,>21<;1*14>201*@$-#;4q3,11-",
">%$o*&;:,&798:%q771%$<3977=,;13>246>*=4,<53>114<",
"=>>:$%+1;:76,#$<08*&3@59<>@:=77816#o<7<1$>:3::97",
"@+-%;+#6<:72;+-601;>1O-<<&%;>66<=*-<3>>$:$,<::6,",
"+%,4::&0<+-4-==,76,-*+=56=;2-71-<&-5864;;;42-72-",
"-;6=&8,**&=1+:,>&4*24;&;02<8%-4:3:>1q73#-+55>q4=",
"<7-*;9&$%**&:>3<,5>529*%576>*,&,73238;-X>o=>;5##",
"2,<%,44<:+#%-9>,:<-#*,<11;;<+*o$=8,265%@&@;6<&11"
};
