/* XPM */
static char *weast_64[] = {
/* columns rows colors chars-per-pixel */
"64 64 24 1 ",
"  c #F76F09",
". c #F76F0A",
"X c #F76F0B",
"o c #F86E09",
"O c #F86F09",
"+ c #F86E0A",
"@ c #F86F0A",
"# c #F96F0A",
"$ c #F86E0B",
"% c #F86F0B",
"& c #F96F0B",
"* c #F86F0C",
"= c #F96F0C",
"- c #F8700A",
"; c #F8700B",
": c #F9710B",
"> c #F8700C",
", c #F9700C",
"< c #F9710C",
"1 c #F9700D",
"2 c #F9710D",
"3 c #FA700D",
"4 c #FA720E",
"5 c #FB730F",
/* pixels */
"4455555445555555554444444554445555554445554444445555555554455555",
"444444444444444444444444444444444444444442>>,,,24444444444444444",
"2222222222222222222244111222222222222222221>>>>>,,22222222222222",
"2222222222222222222242>>>222222222222222222>>>>>>>22222222222222",
"2222222221122222222222>>>11112222222<<<<<11>>>>>>>22222222222222",
"222222222>>1222222221>>>>>>>>,222222<::::>>>>>>>>>22222222222222",
"222222222>>122222222,>>>>>>>>,222222<::::>>>>>>>>>22222222222222",
"22221>>>>>>>>>>>>>>>>>>>>>>>>>>>>>>>;---->>>>>>>>>>>>>,22>>>>122",
"22221>>>>>>>>>>>>>>>>>>>>>>>>>>>>>>>;---->>>>>>>>>>>>>,22>>>>122",
"22,>>>>>>>>>>>>>>>>>>>>----;>>>>>>>>>>>>>----;>>>>>>>>>>>>>>>>>>",
"22,>>>>>>>>>>>>>>>>>>>>----;>>>>>>>>>>>>>----;>>>>>>>>>>>>>>>>>>",
",,>>>>>>>>>>>>>>>>>>>>>----;>>>>>>>>>>>>>----;>>>>>>>>>>>>>>>>>>",
">>>>>>>>>>>>>>>>>>>>>>>----;>>>>>>>>>>>>>----;>>>>>>>>>>>>>>>>>>",
">>>>>>>>>>>>>>>>>>>>>>>----;;;;;>>>>>>>>>----;;;;;>>>>>>>>>>>>>>",
">>>>>>>>>>>>>>>>>>>>>>>#########>>>>>>>>>#########>>>>>>>>>>>>>>",
">>>>>>>>>>>>>>>>>>>>>>>#########>>>>>>>>>#########>>>>>>>>>>>>>>",
">>>>>>>>>>>>>>>>>>>>>>>#########>>>>>>>>>#########>>>>>>>>>>>>>>",
">>>>>>>>>>>>>>>>>>>>>>>#########>>>>>>>>>#########>>>>>>>>>>>>>>",
"====,>>>>>>>>>>>>>==============>>>>>>>>>#########----;>>>>>>>>>",
"====*>>>>>>>>>>>>>==============>>>>>>>>>#########----;>>>>>>>>>",
"====*>>>>>>>>>>>>>==============>>1111,>>#########----;>>>>>>>>>",
"====*>>>>>>>>>>>>>==============>>22221>>#########----;>>>>>>>>>",
"====,>>>>>>>>>>>>>==============>>12221>>#####@@@@----;>>>>>>>>>",
">>>>>>>>>>>>>>>>>>>>>>>===========33221>>====*>>>>=====>>>>>>>>,",
">>>>>>>>>>>>>>>>>>>>>>>===========33221>>====*>>>>=====>>>>>>>>,",
">>>>>>>>>>>>>>>>>>>>>>>=============,>>>>====*>>>>=====>>>>>>>>,",
">>>>>>>>>>>>>>>>>>>>>>>=============,>>>>====*>>>>=====>>>>>>>>,",
">>>>>>>>>>>>>>>>>>>>>>>====*,,,,,,,,>>>>>,,,,>>>>>,,,,>>>>>>>>>>",
">>>>>>>>>>>>>>>>>>>>>>>====,>>>>>>>>>>>>>>>>>>>>>>>>>>>>>>>>>>>>",
">>>>>>>>>>>>>>>>>>>>>>>====,>>>>>>>>>>>>>>>>>>>>>>>>>>>>>>>>>>>>",
">>>>>>>>>>>>>>>>>>>>>>>====,>>>>>>>>>>>>>>>>>>>>>>>>>>>>>>>>>>>>",
">>>>>>>>>>>>>>>>>>>>>>>====,>>>>>>>>>>>>>>>>>>>>>>>>>>>>>>>>>>>>",
">>>>>>>>>>>>>>>>>>>>>>>====,>>>>>>>>>>>>>>>>>>>>>>>>>>>>>>>>>>>>",
">>>>>>>>>>>>>>>>>>>>>>>====,>>>>>>>>>>>>>>>>>>>>>>>>>>>>>>>>>>>>",
">>>>>>>>>>>>>>>>>>>>>>>====,>,22>>>>>>>>>>>>>>>>>>>>>>>>>>>>>>>>",
">>>>>>>>>>>>>>>>>>>>>>>====,>,22>>>>>>>>>>>>>>>>>>>>>>>>>>>>>>>>",
">>>>>>>>>>>>>>>>>>>>>>>====,>>,,1111>>>11>>>>,====>>>>>>>>>>>>>>",
">>>>>>>>>>>>>>>>>>>>>>>====,>>>>2222,>,22>>>>,====>>>>>>>>>>>>>>",
">>>>>>>>>>>>>>>>>>>>>>>====,,,,,2222,>>11>>>>,====>>>>>>>>>>>>>>",
">>>>>>>>>>>>>>>>>>>>>>>====122222222,>>>>>>>>,====>>>>>>>>>>>>>>",
">>>>>>>>>>>>>>>>>>>>>>>====122222222,>>>>>>>>,====>>>>>>>>>>>>>>",
">>>>>>>>>>>>>>>>>>>>>>>>>>>>>,22>>>>>>>>>>>>>>>>>>>>>>>>>>>>>122",
">>>>>>>>>>>>>>>>>>>>>>>>>>>>>,22>>>>>>>>>>>>>>>>>>>>>>>>>>>>>122",
">>>>>>>>>>>>>>>>>>>>>>>>>>>>>>>>>>>>>>>>>>>>>>>>>>>>>>,222222222",
">>>>>>>>>>>>>>>>>>>>>>>>>>>>>>>>>>>>>>>>>>>>>>>>>>>>>>,222222222",
">>>>>>>>>>>>>>>>>>>>>>>;;;;>>>>>>>>>>>>>>>>>>>>>>>>>>>>112221111",
">>>>>>>>>>>>>>>>>>>>>>>----;>>>>>>>>>>>>>>>>>>>>>>>>>>>>>2233333",
">>>>>>>>>>>>>>>>>>>>>>>----;>>>>>>>>>>>>>>>>>>>>>>>>>>>>,2233333",
">>>>>>>>>>>>>>>>>>>>>>>----;>>>>>>>>>>>>>>>>>>>>>>22222222233333",
">>>>>>>>>>>>>>>>>>>>>>>----;>>>>>>>>>>>>>>>>>>>>>>22222222233333",
">>>>>>>>>---------##################;>>>>>>>>>>>>>22221>>22,>122",
">>>>>>>>>---------##################;>>>>>>>>>>>>>22221>>22>>122",
">>>>>>>>>---------##################;>>>>>>>>>>>>>,,,,>>>,,>>122",
">>>>>>>>>---------##################;>>>>>>>>>>>>>>>>>>>>>>>>122",
">>>>>;;;;---------##################;;;;;;;;;>>>>>>>>>>,,,,>>,11",
">>>>;####---------#########-----####-----####&>>>>>>>>,====>>>>>",
">>>>;####---------#########-----####-----####&>>>>>>>>,====>>>>>",
">>>>;####---------ooo######O  --####-----####&>>>>>>>>,====>>>>>",
">>>>;####---------ooo######O  --####-----####&>>>>>>>>,====>>>>>",
">>>>>>>>>--   -------------&===&--------->>>>,====####&>>>>=====",
">>>>>>>>>--   -------------&====--------->>>>,====####&>>>>====&",
"XXXXXXXXX.                 %$$$%---      >>>X*==$$+o##&>>>>====&",
"XXXXXXXXX                  +$$$$--       >>XX%==$$oo##&>>>>====&",
"XXXXXXXXX..................X$$$$--.......>>XX%=*%%++@&;>>>>====="
};
