/* XPM */
static char *weast_48[] = {
/* columns rows colors chars-per-pixel */
"48 48 25 1 ",
"  c #343434",
". c #363636",
"X c #373737",
"o c #383838",
"O c #393939",
"+ c #3A3A3A",
"@ c #3B3B3B",
"# c #3C3C3C",
"$ c #3D3D3D",
"% c #3E3E3E",
"& c #3F3F3F",
"* c gray25",
"= c #414141",
"- c #424242",
"; c #434343",
": c #444444",
"> c #454545",
", c #464646",
"< c #474747",
"1 c #484848",
"2 c #494949",
"3 c #4A4A4A",
"4 c #4B4B4B",
"5 c #4C4C4C",
"6 c #4D4D4D",
/* pixels */
"$o%:&:<,1<=>=&%&<=1-;>*<==*=&=,:;11::-#*#**<%,-=",
"O@%,--<,;4-;;#=->:<,>-&1&:**##2;<,:<1*$-&-:>*<&+",
"#%&<+---=,$*@$;>-=-><>$=*;%:%#,=;;&>#*%&%>>=*>%*",
"%>;>O%&:%;@*%-;1>;:2;2--@$@5O;&=%>%=#+#;-,,>&*;*",
"&:>&*$%;=*%$*4>>2,21*-*=%$@>O&+&%;;%*#;2<1;2-;:#",
"*,1;$@%%$$%#%:=>1*,-&@X$%%=&@$&&#%&%#%$*,<*>&=>&",
"><1,&&@@+$*#=;=&:#;@;&#$&$%$@%=#+%+@&%$=-;%-o#=,",
",>;;$=@@#*$@&#>*;&*$=:$+;$%$o#>@@@$$$$%$*=-=$%&*",
"-*=*@@=#$&&##%=*%&%#:*O+%+@@+$>#&#%$$#&@&:%$%+-*",
"&:**$+$-$%=@O#o##*#@;%#@*$&@%=1+%-%$#$#%@@##$&%*",
"&=*@#@%=*%*@@+#@&@*#%*+&#*=#;;,O%;&*$O#$+%O&#=&&",
"O##%#O*$%%=$$+@%&%$$*@+%*:#&,>=+#%$$#O$%#+*$%#$$",
"+$##%%%O#%&O%==#+@#@&O+-$%**,,;;%o$=@$*=*=##@+%@",
"%@&%X;-@O%%O@;=$+@#O%#O>$%,>,1<=*%%:=&&=%-=$O@@#",
"&%%&*=-*@$@@$:&+%$&&$=*:&%-:,=:,;-*<=@%*$&$#+O$%",
"&-$$&%*,@-@*=1+%:=%=$&:;;*&*;&:,*--*<%@%+O*@*&$%",
"$*++$<+#$;%-:<+@;-$&%;<:-$%&:&*1&$4.&&@-O+,;==,*",
"&@*-+;O%*%$>::@$:=&@,-22&@&$==#-=#,o$;@%@$2#&-:$",
"@#$:*%$#,:>;<>-=<%>&1>:5=+#+@##>*%=+$*-%=-,#:#O+",
"++-:$&+&<21<:3#<<=;==--<+%#O*##:&@*O*;%$->=+;@$@",
"$@*:%%OO>-;<=<*::%<@=;==$-+$+%%>=#%O+>@@1;>%&%$*",
"$==<$#O&,,;;%;@>>=--;-=;#,$*&$%O%##@$<%-<,,#&@#=",
"$;:=&+$$1>%;*;%23&:*%*&#%>$%;&*%*$$$$<$;1-3@&+O,",
";,>--$;,1$*;$$%-3%:;&+#$=%%@*$$*&=&:,>;;-*:@@@$>",
"-,3=#$:>-@+@@$>*,O#=-#+$#-=#@#,&$&@,-;$@>&-%%&&<",
"><2:%-:>,%O%o%=:-#%#;%$*o=--=%*%1&*,>,+&:=&-$=;>",
"--<*21<>2+$+&%:-%&@%=*&##;:*;-##<,>2:1=+#&@*$:>=",
"---&<>1=2$*=#%>%@%%#--%**:-:>-$--:<<=<$@+#$#:;2:",
"-=-%=-;&>o%=**=%&%-#*$#=-#$;$$&:@--=&:$@+#%=1<:3",
"%&*@=&:&-&&*$$*$*#$$&+#&##+&*+%*$&=;*=&O%&$#>;:1",
"X@#$$%;&$%$O$$&$%##%#@%+&*$$O$%=#&%-=@@%4@==;-&:",
"$#$#&@$@$&O$#@%%$O+@#+#%#O&>#+*$+&@$$$+#6-:%%>*;",
"$$*@&o$O*@#+$+$#$o#+%%&#$#;**O#%+$O$#*&-3;;&&:%%",
"%##:@##$$%&#=-#@$&#@$&;@$=&*<+%%#+@$&#&<:;-=@-=$",
"$&,:+<%#-&2&%;$##,$,*&=#@@;=$#-$=+%=+&@-><$,O&+=",
"#*,*-,-=,%<&-=@-$;%<*%%$&$<@$@<#%$%-$=:*1>&=*%$#",
"*=1#$-&*1+-o$>+=,,,*@&@&*,2#%:>,%+&*#>:*-&#=,=;#",
"-::O%*>%=%=%>&$&=;,*,<@#&::>>;1,%O$$-<*==&%=;--$",
"<::$$$--*$%%<=#$%*;*@3=&=&>>2<,3&$$-*:=@$==;-&%#",
":,,&@+;&#$$$-;%%%*=#@:=3;&;:=;=$3.$;-;&$=#@@&*&>",
"1-3*&$*$@$$$>=%<$@o#+>%,;=@%;--%=O$$@;&-==>#O$,1",
"-&&%#$&$#:%=$&;;=%$:O3.$%%&@1O*%&#&;#%&$;&:%%%,-",
"-:-&&$&+%--;@;*X$%%-+>o%%$-O2.%%%+#:;*+o1o#+##%-",
",&---#$OO>:>+-$#*;*>&-+%-%,%*O%$@O@,>-=+;o*@$O#+",
"4 #-=%#@%<&1&=%#&=1#$-$%;-:%*@%$O+&1>=+*&@$*@*-O",
":o#=&:$;;,&,=%@#*;*O@1-3&<<$%@$-%--<1%:#&O&-%#:+",
"*@$-*-$*>:-*$*+O:=>@$,-2*2%$@O@&#-,;<*;%%O@<;*,*",
"##%:*&*:::-*$@#@:=:**1&2&<#$+@=%*<:-;&,$O@$<-;1$"
};
